<?xml version="1.0" encoding="UTF-8"?><svg xmlns="http://www.w3.org/2000/svg" xmlns:xlink="http://www.w3.org/1999/xlink" viewBox="0 0 400 200"><defs><style>.cls-1{fill:url(#linear-gradient-2);}.cls-2{fill:url(#linear-gradient-4);}.cls-3{fill:url(#linear-gradient-3);}.cls-4{fill:url(#Sky);}.cls-5{fill:url(#linear-gradient);}</style><linearGradient id="Sky" x1="400" y1="100" x2="0" y2="100" gradientUnits="userSpaceOnUse"><stop offset="0" stop-color="#cce0f4"/><stop offset=".06" stop-color="#c2dcf2"/><stop offset=".17" stop-color="#a9d2ee"/><stop offset=".31" stop-color="#7fc2e7"/><stop offset=".46" stop-color="#46abdd"/><stop offset=".57" stop-color="#1e9cd7"/><stop offset=".87" stop-color="#0075be"/><stop offset=".99" stop-color="#005b97"/></linearGradient><linearGradient id="linear-gradient" x1="263.27" y1="96.7" x2="384.97" y2="96.7" gradientUnits="userSpaceOnUse"><stop offset="0" stop-color="#000"/><stop offset=".36" stop-color="#000"/><stop offset=".42" stop-color="#15091e"/><stop offset=".5" stop-color="#321647"/><stop offset=".59" stop-color="#482067"/><stop offset=".67" stop-color="#58277e"/><stop offset=".74" stop-color="#622b8c"/><stop offset=".81" stop-color="#662d91"/><stop offset=".99" stop-color="#662d91"/></linearGradient><linearGradient id="linear-gradient-2" x1="193.62" y1="102.06" x2="263.26" y2="102.06" xlink:href="#linear-gradient"/><linearGradient id="linear-gradient-3" x1="102.58" y1="101.6" x2="182.9" y2="101.6" gradientUnits="userSpaceOnUse"><stop offset="0" stop-color="#000"/><stop offset=".36" stop-color="#000"/><stop offset=".42" stop-color="#15091e"/><stop offset=".5" stop-color="#321647"/><stop offset=".58" stop-color="#482067"/><stop offset=".66" stop-color="#58277e"/><stop offset=".74" stop-color="#622b8c"/><stop offset=".81" stop-color="#662d91"/><stop offset=".99" stop-color="#662d91"/></linearGradient><linearGradient id="linear-gradient-4" x1="12.38" y1="101.9" x2="94.77" y2="101.9" gradientUnits="userSpaceOnUse"><stop offset="0" stop-color="#000"/><stop offset=".18" stop-color="#000"/><stop offset=".26" stop-color="#15091e"/><stop offset=".38" stop-color="#321647"/><stop offset=".5" stop-color="#482067"/><stop offset=".61" stop-color="#58277e"/><stop offset=".71" stop-color="#622b8c"/><stop offset=".81" stop-color="#662d91"/><stop offset=".99" stop-color="#662d91"/></linearGradient></defs><g id="Background"><rect class="cls-4" width="400" height="200"/></g><g id="N"><path class="cls-5" d="M344.35,46.5c7.11,1.75,12.66,3.91,16.65,6.47,5.37,3.46,9.44,7.69,12.23,12.69,2.78,5,4.18,10.33,4.18,15.99,0,3.99-.68,7.95-2.04,11.9-1.36,3.95-3.59,8.3-6.67,13.06-1.1,1.71-6.42,8.93-15.97,21.67,4.88-2.15,9.78-3.22,14.7-3.22,2.11,0,3.91.15,5.4.46,1.48.3,2.61.46,3.38.46.69,0,1.33-.31,1.92-.95.58-.63,1.89-2.9,3.91-6.81l2.96,1.13-10.47,19.62c-5.53-1.87-10.11-2.81-13.73-2.81-4.11,0-7.49.79-10.13,2.38-2.65,1.59-5.21,4.35-7.69,8.3l-2.47-1.25c1.38-4.15,3.87-9.31,7.45-15.49,5.9-10.12,10.31-18.42,13.24-24.88-3.7-2.44-7.08-4.18-10.13-5.22-3.05-1.04-6.29-1.56-9.7-1.56-2.85,0-5.52.36-8.03,1.07-2.5.71-5.44,2-8.82,3.88v10.74c0,6.55-.34,11.23-1.01,14.04-.67,2.81-2.17,5.67-4.51,8.58-2.34,2.91-5.35,5.33-9.03,7.26s-7.49,2.9-11.44,2.9c-1.59,0-3.15-.16-4.7-.49-.9-.16-3.45-.87-7.66-2.11-4.21-1.24-6.58-1.92-7.11-2.04-1.14-.2-2.36-.3-3.66-.3-1.91,0-3.61.26-5.09.79-1.49.53-3.24,1.48-5.28,2.87l-1.74-1.53c4.15-7.36,9.79-11.05,16.91-11.05,2.89,0,6.63.51,11.23,1.53,2.81.61,4.72.92,5.74.92,2.2,0,4.09-.88,5.68-2.65,1.59-1.77,2.38-4.05,2.38-6.85,0-3.57-1.23-6.57-3.69-9.01s-5.47-3.65-9.05-3.65c-2.36,0-4.88,1-7.56,2.99l-1.74-1.56c1.83-2.29,3.64-3.94,5.43-4.94,1.79-1,3.8-1.5,6.04-1.5,1.3,0,2.66.22,4.06.67,1.4.45,2.86,1.12,4.36,2.01-.69-3.58-1.91-6.33-3.66-8.24-3.05-3.34-6.87-5-11.46-5-1.95,0-3.56.2-4.82.61-.98.33-2.19,1.04-3.66,2.14l-1.5-2.17c2.2-2.23,4.21-3.77,6.04-4.65,1.83-.87,3.85-1.31,6.04-1.31,1.87,0,3.6.27,5.19.82,1.59.55,3.72,1.72,6.41,3.51,0-3.3-.54-5.91-1.62-7.84-1.08-1.93-2.97-3.69-5.67-5.28-2.7-1.59-5.33-2.38-7.89-2.38-2.32,0-4.65.81-7.01,2.44l-1.5-2.04c1.83-1.98,3.54-3.34,5.13-4.07,1.99-1.01,4.15-1.52,6.47-1.52,1.99,0,3.84.3,5.55.89s3.89,1.76,6.53,3.51v-13.61l42.69-20.32ZM321.68,60.96l-7.45,3.7v52.55c0,6.1-.61,10.46-1.83,13.06s-3.58,5.11-7.08,7.51c4.19-.33,7.22-1.16,9.09-2.5,2.77-1.95,4.67-4.34,5.71-7.17,1.04-2.83,1.56-7.66,1.56-14.5v-52.65ZM324.49,79.34c3.87,2.24,7.2,3.79,10.01,4.67,2.81.88,5.74,1.31,8.79,1.31,3.46,0,6.74-.54,9.86-1.63,3.11-1.09,6.75-3.03,10.9-5.81-2.28-5.84-6.14-10.52-11.6-14.05-5.45-3.53-11.58-5.3-18.37-5.3-2.89,0-6.08.53-9.58,1.59v19.22ZM324.49,100.09c3.58-1.71,6.62-2.89,9.12-3.54,2.5-.65,5.2-.98,8.09-.98,3.66,0,7.07.53,10.22,1.6,3.15,1.07,6.56,2.85,10.22,5.36,1.14-2.89,1.99-5.65,2.56-8.3.57-2.64.85-5.17.85-7.57,0-1.71-.22-3.64-.67-5.8-4.48,2.82-8.29,4.76-11.44,5.81-3.15,1.05-6.44,1.57-9.86,1.57-2.97,0-5.9-.42-8.79-1.25-2.89-.83-6.33-2.31-10.31-4.42v17.52Z"/></g><g id="I"><path class="cls-1" d="M262.19,55.37l1.07,2.11c-4.27,1.26-7.22,2.94-8.85,5.03-1.63,2.1-2.44,4.91-2.44,8.45,0,4.39.96,12.16,2.87,23.31,1.55,8.99,2.46,14.67,2.75,17.05.28,2.38.43,4.85.43,7.41,0,6.47-1.2,11.87-3.6,16.2-2.4,4.33-5.47,7.49-9.21,9.49s-7.14,2.99-10.19,2.99c-3.21,0-8.56-1.18-16.04-3.54-5.94-1.83-10.17-2.75-12.69-2.75s-4.66.64-6.41,1.92c-1.75,1.28-3.05,3.18-3.9,5.71l-2.35-.95c.98-3.82,2.26-6.78,3.85-8.9,2.08-2.76,4.28-4.69,6.62-5.79s5.75-1.77,10.22-2.01c4.48-.24,7.53-1.2,9.16-2.87,1.63-1.63,2.44-4.21,2.44-7.75,0-7.12-1.4-12.53-4.21-16.24-2.03-2.69-4.71-4.03-8.04-4.03-1.38,0-2.79.3-4.24.89-1.44.59-3.38,1.78-5.82,3.57l-1.8-1.5c2.16-3.65,4.68-6.4,7.57-8.25,2.89-1.85,6.27-2.77,10.13-2.77.57,0,1.26.02,2.08.06.12-6.63,1.07-12.07,2.84-16.33,1.77-4.25,5.14-9.12,10.1-14.62-4.84,2.32-7.93,3.69-9.27,4.12-1.34.43-2.79.64-4.33.64-1.26,0-3.1-.22-5.52-.67-2.42-.45-4.24-.67-5.46-.67-2.85,0-5.02.63-6.52,1.89-1.5,1.26-2.46,3.26-2.87,5.98l-2.35-.46c.69-4.53,2.16-8.07,4.4-10.64,3.18-3.59,7.43-5.38,12.76-5.38,1.55,0,3.4.24,5.56.73,4.03.85,7.43,1.28,10.2,1.28,2.16,0,4.05-.18,5.68-.55s3.6-1.1,5.92-2.2l1.5,1.8c-4.27,3.5-7.23,7.02-8.88,10.56-1.65,3.54-2.47,8.52-2.47,14.95,0,3.38.12,6.33.37,8.85.08,1.14.61,4.84,1.59,11.11,1.18,7.89,1.77,13.08,1.77,15.56,0,4.64-1.4,8.24-4.21,10.8-2.07,1.87-5.45,3.3-10.12,4.27,4.76,4.14,8.08,6.71,9.97,7.73s3.79,1.52,5.7,1.52c2.72,0,5.03-.99,6.92-2.96,1.89-1.97,2.84-4.55,2.84-7.72,0-3.82-.92-11.09-2.75-21.79-2.2-12.61-3.3-22.05-3.3-28.32,0-5.86.82-10.53,2.47-14.01,1.65-3.48,4.09-6.34,7.34-8.58,2.44-1.67,6.01-2.93,10.73-3.78Z"/></g><g id="X"><path class="cls-3" d="M148.19,90.64l16.65-35.27c5.19,3.61,11.22,6.99,18.07,10.13l-5.2,9.85-15.73-6.86-12.74,26.8h27.69l-4.09,9.09h-18.16l10.78,22.83c2.15,4.6,3.72,7.45,4.69,8.55,1.42,1.63,2.62,2.44,3.59,2.44.61,0,1.66-.67,3.17-2.01l3.96-3.48,2.04,2.11-14.71,13.03c-3.78-1.79-6.38-3.4-7.78-4.82-1.4-1.42-3.06-4.17-4.97-8.24l-12.48-26.3-18.71,39.36c-5.44-3.76-11.87-7.02-19.29-9.77l4.89-10.88,17.8,6.96,14.05-29.78h-26.79l4.21-9.09h17.58l-9.04-19.04c-1.79-3.78-3.03-6.14-3.72-7.08-1.06-1.42-2.39-2.54-3.99-3.36-1.6-.81-3.22-1.22-4.85-1.22-1.91,0-3.73.56-5.46,1.68s-3.52,2.96-5.39,5.52l-1.68-1.92c1.38-4.67,3.66-8.25,6.84-10.75s6.69-3.75,10.56-3.75c4.19,0,7.68,1.09,10.47,3.27,2.79,2.18,5.52,6.11,8.21,11.81l9.53,20.2Z"/></g><g id="K"><path class="cls-2" d="M41.22,63.96l1.25,1.89c-6.75,4.31-11.73,9.27-14.92,14.86-3.19,5.59-4.79,11.59-4.79,17.97,0,8.22,2.81,16.07,8.42,23.56,2.36-1.95,3.78-3.59,4.27-4.91s.73-4.73.73-10.22v-28.08l26.7-22.77c4.96,2.4,9.15,4.07,12.54,5.01,3.4.94,6.75,1.4,10.04,1.4,1.71,0,3.82-.18,6.35-.55l1.49,1.86-21.06,21.27h16.48l-6.65,11.66h-23.19v39.61l3.9.18c5.77,0,11.51-1.44,17.2-4.33,4.31-2.16,8.74-5.53,13.29-10.13l1.5,2.35c-4.72,7.36-9.93,12.82-15.62,16.4-6.96,4.35-14.89,6.52-23.8,6.52-14.04,0-25.13-4.84-33.26-14.53-6.47-7.69-9.7-16.7-9.7-27.04,0-6.43,1.32-12.42,3.96-17.98,2.64-5.55,6.36-10.53,11.16-14.92,3.41-3.09,7.99-6.12,13.72-9.09ZM56.08,66.95l-7.45,6.27v28.31c0,3.13-.17,5.31-.52,6.53-.35,1.22-1.15,2.54-2.41,3.96-2.68,3.17-6.99,7.22-12.93,12.14,3.54,3.74,7.04,6.52,10.52,8.35,3.48,1.83,7.74,3.09,12.78,3.78v-69.34ZM79.45,73.83c-4.27-.61-7.78-1.34-10.53-2.19-2.75-.85-6.09-2.25-10.04-4.2v27.2l20.56-20.82Z"/></g></svg>